<svg xmlns="http://www.w3.org/2000/svg" xmlns:xlink="http://www.w3.org/1999/xlink" width="1.875em" zoomAndPan="magnify" viewBox="0 0 325 325" height="1.5em" preserveAspectRatio="xMidYMid meet" version="1.0"><defs><clipPath id="59e2895825"><path d="M 33.957031 14.886719 L 356.457031 14.886719 L 356.457031 306 L 33.957031 306 Z M 33.957031 14.886719 " clip-rule="nonzero"/></clipPath><clipPath id="59c76930e9"><path d="M 114 220 L 276 220 L 276 337.386719 L 114 337.386719 Z M 114 220 " clip-rule="nonzero"/></clipPath></defs><g clip-path="url(#59e2895825)"><path fill="#8c52ff" d="M 312.234375 287.25 L 356.101562 282.007812 L 328.101562 267.710938 C 346.046875 241.710938 356.558594 210.171875 356.558594 176.1875 C 356.558594 87.101562 284.339844 14.886719 195.257812 14.886719 C 106.175781 14.886719 33.953125 87.101562 33.953125 176.1875 C 33.953125 229.128906 59.460938 276.121094 98.855469 305.53125 C 101.664062 291.582031 105.976562 278.515625 111.546875 266.699219 C 87.207031 244.175781 71.972656 211.964844 71.972656 176.1875 C 71.972656 108.097656 127.167969 52.898438 195.257812 52.898438 C 263.347656 52.898438 318.542969 108.097656 318.542969 176.1875 C 318.542969 200.75 311.367188 223.628906 298.984375 242.851562 L 293.683594 232.292969 L 285.007812 215.019531 L 283.058594 247.757812 L 282.113281 263.691406 L 281.582031 272.558594 L 280.480469 291.046875 L 287.859375 290.167969 Z M 312.234375 287.25 " fill-opacity="1" fill-rule="evenodd"/></g><path fill="#323748" d="M 308.40625 170.847656 C 308.484375 172.617188 308.53125 174.394531 308.53125 176.1875 C 308.53125 177.980469 308.484375 179.761719 308.40625 181.527344 L 278.261719 181.527344 C 278.371094 179.804688 278.421875 178.0625 278.421875 176.3125 C 278.421875 174.476562 278.367188 172.65625 278.246094 170.847656 Z M 308.40625 170.847656 " fill-opacity="1" fill-rule="evenodd"/><path fill="#323748" d="M 125.988281 222.351562 L 99.929688 237.394531 C 98.011719 234.40625 96.222656 231.320312 94.578125 228.148438 L 120.648438 213.09375 C 122.230469 216.308594 124.015625 219.394531 125.988281 222.351562 Z M 125.988281 222.351562 " fill-opacity="1" fill-rule="evenodd"/><path fill="#323748" d="M 82.109375 181.527344 C 82.023438 179.757812 81.984375 177.980469 81.984375 176.1875 C 81.984375 174.394531 82.023438 172.617188 82.109375 170.84375 L 112.273438 170.84375 C 112.152344 172.652344 112.09375 174.476562 112.09375 176.3125 C 112.09375 178.0625 112.148438 179.804688 112.253906 181.527344 Z M 82.109375 181.527344 " fill-opacity="1" fill-rule="evenodd"/><path fill="#323748" d="M 94.578125 124.230469 C 96.21875 121.058594 98.011719 117.96875 99.929688 114.980469 L 126.105469 130.097656 C 124.132812 133.046875 122.335938 136.132812 120.746094 139.335938 Z M 94.578125 124.230469 " fill-opacity="1" fill-rule="evenodd"/><path fill="#323748" d="M 134.050781 80.859375 C 137.042969 78.9375 140.125 77.152344 143.300781 75.511719 L 158.4375 101.726562 C 155.226562 103.308594 152.136719 105.097656 149.183594 107.066406 Z M 134.050781 80.859375 " fill-opacity="1" fill-rule="evenodd"/><path fill="#323748" d="M 189.914062 63.039062 C 191.6875 62.957031 193.464844 62.917969 195.257812 62.917969 C 197.050781 62.917969 198.828125 62.957031 200.601562 63.039062 L 200.601562 93.316406 C 198.832031 93.203125 197.054688 93.148438 195.257812 93.148438 C 193.464844 93.148438 191.683594 93.203125 189.914062 93.316406 Z M 189.914062 63.039062 " fill-opacity="1" fill-rule="evenodd"/><path fill="#323748" d="M 247.214844 75.511719 C 250.390625 77.152344 253.476562 78.9375 256.464844 80.859375 L 241.335938 107.066406 C 238.378906 105.097656 235.289062 103.308594 232.078125 101.722656 Z M 247.214844 75.511719 " fill-opacity="1" fill-rule="evenodd"/><path fill="#323748" d="M 290.585938 114.980469 C 292.503906 117.96875 294.296875 121.058594 295.9375 124.230469 L 269.769531 139.335938 C 268.179688 136.132812 266.382812 133.046875 264.410156 130.097656 Z M 290.585938 114.980469 " fill-opacity="1" fill-rule="evenodd"/><path fill="#323748" d="M 195.257812 206.398438 C 174.945312 206.398438 158.472656 189.925781 158.472656 169.613281 C 158.472656 149.296875 174.945312 132.828125 195.257812 132.828125 C 215.570312 132.828125 232.042969 149.296875 232.042969 169.613281 C 232.042969 189.925781 215.570312 206.398438 195.257812 206.398438 Z M 195.257812 206.398438 " fill-opacity="1" fill-rule="evenodd"/><g clip-path="url(#59c76930e9)"><path fill="#323748" d="M 275.921875 315.90625 C 252.195312 329.636719 224.640625 337.492188 195.257812 337.492188 C 165.875 337.492188 138.324219 329.636719 114.59375 315.90625 C 123.027344 261.53125 155.945312 220.980469 195.257812 220.980469 C 234.574219 220.980469 267.488281 261.53125 275.921875 315.90625 Z M 275.921875 315.90625 " fill-opacity="1" fill-rule="evenodd"/></g></svg>